<svg xmlns="http://www.w3.org/2000/svg" style="display: none;">
    <symbol id="dice-1" viewBox="0 0 16 16">
        <path class="dice-background" d="M3 0a3 3 0 0 0-3 3v10a3 3 0 0 0 3 3h10a3 3 0 0 0 3-3V3a3 3 0 0 0-3-3"/>
        <circle class="dice-circle" cx="8" cy="8" r="1.5"/>
    </symbol>
    <symbol id="dice-2" viewBox="0 0 16 16">
        <path class="dice-background" d="M0 3a3 3 0 0 1 3-3h10a3 3 0 0 1 3 3v10a3 3 0 0 1-3 3H3a3 3 0 0 1-3-3"/>
        <circle class="dice-circle" cx="4.5" cy="4.5" r="1.5"/>
        <circle class="dice-circle" cx="11.5" cy="11.5" r="1.5"/>
    </symbol>
    <symbol id="dice-3" viewBox="0 0 16 16">
        <path class="dice-background" d="M3 0a3 3 0 0 0-3 3v10a3 3 0 0 0 3 3h10a3 3 0 0 0 3-3V3a3 3 0 0 0-3-3"/>
        <circle class="dice-circle" cx="4.5" cy="4.5" r="1.5"/>
        <circle class="dice-circle" cx="8" cy="8" r="1.5"/>
        <circle class="dice-circle" cx="11.5" cy="11.5" r="1.5"/>
    </symbol>
    <symbol id="dice-4" viewBox="0 0 16 16">
        <path class="dice-background" d="M3 0a3 3 0 0 0-3 3v10a3 3 0 0 0 3 3h10a3 3 0 0 0 3-3V3a3 3 0 0 0-3-3"/>
        <circle class="dice-circle" cx="4.5" cy="4.5" r="1.5"/>
        <circle class="dice-circle" cx="11.5" cy="4.5" r="1.5"/>
        <circle class="dice-circle" cx="4.5" cy="11.5" r="1.5"/>
        <circle class="dice-circle" cx="11.5" cy="11.5" r="1.5"/>
    </symbol>
    <symbol id="dice-5" viewBox="0 0 16 16">
        <path class="dice-background" d="M3 0a3 3 0 0 0-3 3v10a3 3 0 0 0 3 3h10a3 3 0 0 0 3-3V3a3 3 0 0 0-3-3"/>
        <circle class="dice-circle" cx="4.5" cy="4.5" r="1.5"/>
        <circle class="dice-circle" cx="8" cy="8" r="1.5"/>
        <circle class="dice-circle" cx="11.5" cy="4.5" r="1.5"/>
        <circle class="dice-circle" cx="4.5" cy="11.5" r="1.5"/>
        <circle class="dice-circle" cx="11.5" cy="11.5" r="1.5"/>
    </symbol>
    <symbol id="dice-6" viewBox="0 0 16 16">
        <path class="dice-background" d="M3 0a3 3 0 0 0-3 3v10a3 3 0 0 0 3 3h10a3 3 0 0 0 3-3V3a3 3 0 0 0-3-3z" />
        <circle class="dice-circle" cx="4" cy="3.5" r="1.5"/>
        <circle class="dice-circle" cx="12" cy="3.5" r="1.5"/>
        <circle class="dice-circle" cx="4" cy="8" r="1.5"/>
        <circle class="dice-circle" cx="12" cy="8" r="1.5"/>
        <circle class="dice-circle" cx="4" cy="12.5" r="1.5"/>
        <circle class="dice-circle" cx="12" cy="12.5" r="1.5"/>
    </symbol>
</svg>